<mxfile host="app.diagrams.net" modified="2024-05-07T08:13:31.249Z" agent="Mozilla/5.0 (Windows NT 10.0; Win64; x64) AppleWebKit/537.36 (KHTML, like Gecko) Chrome/124.0.0.0 Safari/537.36 Edg/124.0.0.0" etag="9xCtb2A8i_VRbiO7zJI5" version="24.3.1" type="github">
  <diagram name="Page-1" id="2YBvvXClWsGukQMizWep">
    <mxGraphModel dx="2392" dy="866" grid="1" gridSize="10" guides="1" tooltips="1" connect="1" arrows="1" fold="1" page="1" pageScale="1" pageWidth="850" pageHeight="1100" math="0" shadow="0">
      <root>
        <mxCell id="0" />
        <mxCell id="1" parent="0" />
        <mxCell id="aM9ryv3xv72pqoxQDRHE-1" value="login.vue" style="shape=umlLifeline;perimeter=lifelinePerimeter;whiteSpace=wrap;html=1;container=0;dropTarget=0;collapsible=0;recursiveResize=0;outlineConnect=0;portConstraint=eastwest;newEdgeStyle={&quot;edgeStyle&quot;:&quot;elbowEdgeStyle&quot;,&quot;elbow&quot;:&quot;vertical&quot;,&quot;curved&quot;:0,&quot;rounded&quot;:0};" parent="1" vertex="1">
          <mxGeometry x="40" y="40" width="100" height="310" as="geometry" />
        </mxCell>
        <mxCell id="aM9ryv3xv72pqoxQDRHE-2" value="" style="html=1;points=[];perimeter=orthogonalPerimeter;outlineConnect=0;targetShapes=umlLifeline;portConstraint=eastwest;newEdgeStyle={&quot;edgeStyle&quot;:&quot;elbowEdgeStyle&quot;,&quot;elbow&quot;:&quot;vertical&quot;,&quot;curved&quot;:0,&quot;rounded&quot;:0};" parent="aM9ryv3xv72pqoxQDRHE-1" vertex="1">
          <mxGeometry x="45" y="60" width="10" height="200" as="geometry" />
        </mxCell>
        <mxCell id="q6NIXt8k8cD3QEOPo4rP-18" value="" style="html=1;points=[[0,0,0,0,5],[0,1,0,0,-5],[1,0,0,0,5],[1,1,0,0,-5]];perimeter=orthogonalPerimeter;outlineConnect=0;targetShapes=umlLifeline;portConstraint=eastwest;newEdgeStyle={&quot;curved&quot;:0,&quot;rounded&quot;:0};direction=south;" vertex="1" parent="aM9ryv3xv72pqoxQDRHE-1">
          <mxGeometry x="40" y="290" width="20" height="15" as="geometry" />
        </mxCell>
        <mxCell id="q6NIXt8k8cD3QEOPo4rP-19" value="验证失败，弹出提示" style="html=1;align=left;spacingLeft=2;endArrow=block;rounded=0;edgeStyle=orthogonalEdgeStyle;curved=0;rounded=0;" edge="1" target="q6NIXt8k8cD3QEOPo4rP-18" parent="aM9ryv3xv72pqoxQDRHE-1">
          <mxGeometry relative="1" as="geometry">
            <mxPoint x="55" y="149.9999999999999" as="sourcePoint" />
            <Array as="points">
              <mxPoint x="55" y="230" />
              <mxPoint x="80" y="230" />
              <mxPoint x="80" y="300" />
            </Array>
            <mxPoint x="55" y="254.9999999999999" as="targetPoint" />
          </mxGeometry>
        </mxCell>
        <mxCell id="aM9ryv3xv72pqoxQDRHE-5" value="LoginMapper" style="shape=umlLifeline;perimeter=lifelinePerimeter;whiteSpace=wrap;html=1;container=0;dropTarget=0;collapsible=0;recursiveResize=0;outlineConnect=0;portConstraint=eastwest;newEdgeStyle={&quot;edgeStyle&quot;:&quot;elbowEdgeStyle&quot;,&quot;elbow&quot;:&quot;vertical&quot;,&quot;curved&quot;:0,&quot;rounded&quot;:0};" parent="1" vertex="1">
          <mxGeometry x="520" y="40" width="100" height="300" as="geometry" />
        </mxCell>
        <mxCell id="q6NIXt8k8cD3QEOPo4rP-10" value="" style="html=1;points=[[0,0,0,0,5],[0,1,0,0,-5],[1,0,0,0,5],[1,1,0,0,-5]];perimeter=orthogonalPerimeter;outlineConnect=0;targetShapes=umlLifeline;portConstraint=eastwest;newEdgeStyle={&quot;curved&quot;:0,&quot;rounded&quot;:0};" vertex="1" parent="aM9ryv3xv72pqoxQDRHE-5">
          <mxGeometry x="45" y="110" width="10" height="80" as="geometry" />
        </mxCell>
        <mxCell id="q6NIXt8k8cD3QEOPo4rP-3" value="" style="shape=umlLifeline;perimeter=lifelinePerimeter;whiteSpace=wrap;html=1;container=1;dropTarget=0;collapsible=0;recursiveResize=0;outlineConnect=0;portConstraint=eastwest;newEdgeStyle={&quot;curved&quot;:0,&quot;rounded&quot;:0};participant=umlActor;" vertex="1" parent="1">
          <mxGeometry x="-20" y="40" width="20" height="300" as="geometry" />
        </mxCell>
        <mxCell id="aM9ryv3xv72pqoxQDRHE-3" value="dispatch" style="html=1;verticalAlign=bottom;startArrow=oval;endArrow=block;startSize=8;edgeStyle=elbowEdgeStyle;elbow=vertical;curved=0;rounded=0;" parent="1" target="aM9ryv3xv72pqoxQDRHE-2" edge="1" source="q6NIXt8k8cD3QEOPo4rP-3">
          <mxGeometry relative="1" as="geometry">
            <mxPoint x="25" y="110" as="sourcePoint" />
            <Array as="points">
              <mxPoint x="80" y="120" />
            </Array>
          </mxGeometry>
        </mxCell>
        <mxCell id="q6NIXt8k8cD3QEOPo4rP-4" value="LoginController" style="shape=umlLifeline;perimeter=lifelinePerimeter;whiteSpace=wrap;html=1;container=1;dropTarget=0;collapsible=0;recursiveResize=0;outlineConnect=0;portConstraint=eastwest;newEdgeStyle={&quot;curved&quot;:0,&quot;rounded&quot;:0};" vertex="1" parent="1">
          <mxGeometry x="190" y="40" width="100" height="300" as="geometry" />
        </mxCell>
        <mxCell id="q6NIXt8k8cD3QEOPo4rP-6" value="" style="html=1;points=[[0,0,0,0,5],[0,1,0,0,-5],[1,0,0,0,5],[1,1,0,0,-5]];perimeter=orthogonalPerimeter;outlineConnect=0;targetShapes=umlLifeline;portConstraint=eastwest;newEdgeStyle={&quot;curved&quot;:0,&quot;rounded&quot;:0};" vertex="1" parent="q6NIXt8k8cD3QEOPo4rP-4">
          <mxGeometry x="45" y="70" width="10" height="150" as="geometry" />
        </mxCell>
        <mxCell id="q6NIXt8k8cD3QEOPo4rP-5" value="LoginService" style="shape=umlLifeline;perimeter=lifelinePerimeter;whiteSpace=wrap;html=1;container=1;dropTarget=0;collapsible=0;recursiveResize=0;outlineConnect=0;portConstraint=eastwest;newEdgeStyle={&quot;curved&quot;:0,&quot;rounded&quot;:0};" vertex="1" parent="1">
          <mxGeometry x="360" y="40" width="100" height="300" as="geometry" />
        </mxCell>
        <mxCell id="q6NIXt8k8cD3QEOPo4rP-9" value="" style="html=1;points=[[0,0,0,0,5],[0,1,0,0,-5],[1,0,0,0,5],[1,1,0,0,-5]];perimeter=orthogonalPerimeter;outlineConnect=0;targetShapes=umlLifeline;portConstraint=eastwest;newEdgeStyle={&quot;curved&quot;:0,&quot;rounded&quot;:0};" vertex="1" parent="q6NIXt8k8cD3QEOPo4rP-5">
          <mxGeometry x="45" y="90" width="10" height="120" as="geometry" />
        </mxCell>
        <mxCell id="q6NIXt8k8cD3QEOPo4rP-7" value="填写账号、密码、&lt;div&gt;验证码，点击登录，&lt;div&gt;调用后端Controller接口&lt;/div&gt;&lt;/div&gt;" style="html=1;verticalAlign=bottom;endArrow=block;curved=0;rounded=0;entryX=0;entryY=0;entryDx=0;entryDy=5;entryPerimeter=0;" edge="1" parent="1">
          <mxGeometry width="80" relative="1" as="geometry">
            <mxPoint x="95" y="130" as="sourcePoint" />
            <mxPoint x="235" y="130" as="targetPoint" />
          </mxGeometry>
        </mxCell>
        <mxCell id="q6NIXt8k8cD3QEOPo4rP-8" value="调用Service层处理登录业务逻辑" style="html=1;verticalAlign=bottom;endArrow=block;curved=0;rounded=0;" edge="1" parent="1">
          <mxGeometry width="80" relative="1" as="geometry">
            <mxPoint x="245" y="150" as="sourcePoint" />
            <mxPoint x="405" y="150" as="targetPoint" />
          </mxGeometry>
        </mxCell>
        <mxCell id="q6NIXt8k8cD3QEOPo4rP-11" value="调用Mapper层执行&lt;div&gt;具体的sql语句查询数据库&lt;/div&gt;" style="html=1;verticalAlign=bottom;endArrow=block;curved=0;rounded=0;" edge="1" parent="1">
          <mxGeometry width="80" relative="1" as="geometry">
            <mxPoint x="415" y="160" as="sourcePoint" />
            <mxPoint x="565" y="160" as="targetPoint" />
          </mxGeometry>
        </mxCell>
        <mxCell id="q6NIXt8k8cD3QEOPo4rP-13" value="return查询结果" style="html=1;verticalAlign=bottom;endArrow=open;dashed=1;endSize=8;curved=0;rounded=0;" edge="1" parent="1" target="q6NIXt8k8cD3QEOPo4rP-9">
          <mxGeometry relative="1" as="geometry">
            <mxPoint x="565" y="220" as="sourcePoint" />
            <mxPoint x="420" y="220" as="targetPoint" />
          </mxGeometry>
        </mxCell>
        <mxCell id="q6NIXt8k8cD3QEOPo4rP-15" value="根据查询结果，执行&lt;div&gt;判断逻辑，封装统&lt;/div&gt;&lt;div&gt;一返回结果并返回&lt;/div&gt;" style="html=1;verticalAlign=bottom;endArrow=open;dashed=1;endSize=8;curved=0;rounded=0;" edge="1" parent="1" target="q6NIXt8k8cD3QEOPo4rP-6">
          <mxGeometry x="0.0323" y="-10" relative="1" as="geometry">
            <mxPoint x="400" y="240" as="sourcePoint" />
            <mxPoint x="320" y="240" as="targetPoint" />
            <mxPoint as="offset" />
          </mxGeometry>
        </mxCell>
        <mxCell id="q6NIXt8k8cD3QEOPo4rP-16" value="return封装好的统一返回结果" style="html=1;verticalAlign=bottom;endArrow=open;dashed=1;endSize=8;curved=0;rounded=0;" edge="1" parent="1" target="aM9ryv3xv72pqoxQDRHE-2">
          <mxGeometry x="0.0018" relative="1" as="geometry">
            <mxPoint x="230" y="250" as="sourcePoint" />
            <mxPoint x="100" y="250" as="targetPoint" />
            <mxPoint as="offset" />
          </mxGeometry>
        </mxCell>
        <mxCell id="q6NIXt8k8cD3QEOPo4rP-17" value="index.vue" style="shape=umlLifeline;perimeter=lifelinePerimeter;whiteSpace=wrap;html=1;container=1;dropTarget=0;collapsible=0;recursiveResize=0;outlineConnect=0;portConstraint=eastwest;newEdgeStyle={&quot;curved&quot;:0,&quot;rounded&quot;:0};" vertex="1" parent="1">
          <mxGeometry x="670" y="40" width="100" height="300" as="geometry" />
        </mxCell>
        <mxCell id="q6NIXt8k8cD3QEOPo4rP-21" value="" style="html=1;points=[[0,0,0,0,5],[0,1,0,0,-5],[1,0,0,0,5],[1,1,0,0,-5]];perimeter=orthogonalPerimeter;outlineConnect=0;targetShapes=umlLifeline;portConstraint=eastwest;newEdgeStyle={&quot;curved&quot;:0,&quot;rounded&quot;:0};" vertex="1" parent="q6NIXt8k8cD3QEOPo4rP-17">
          <mxGeometry x="45" y="240" width="10" height="20" as="geometry" />
        </mxCell>
        <mxCell id="q6NIXt8k8cD3QEOPo4rP-20" value="验证通过，弹出登录成功提示，跳转到首页index.vue" style="html=1;verticalAlign=bottom;endArrow=block;curved=0;rounded=0;" edge="1" parent="1" target="q6NIXt8k8cD3QEOPo4rP-21">
          <mxGeometry width="80" relative="1" as="geometry">
            <mxPoint x="95" y="290" as="sourcePoint" />
            <mxPoint x="719.5" y="290" as="targetPoint" />
          </mxGeometry>
        </mxCell>
        <mxCell id="q6NIXt8k8cD3QEOPo4rP-25" value="register.vue" style="shape=umlLifeline;perimeter=lifelinePerimeter;whiteSpace=wrap;html=1;container=0;dropTarget=0;collapsible=0;recursiveResize=0;outlineConnect=0;portConstraint=eastwest;newEdgeStyle={&quot;edgeStyle&quot;:&quot;elbowEdgeStyle&quot;,&quot;elbow&quot;:&quot;vertical&quot;,&quot;curved&quot;:0,&quot;rounded&quot;:0};" vertex="1" parent="1">
          <mxGeometry x="40" y="440" width="100" height="310" as="geometry" />
        </mxCell>
        <mxCell id="q6NIXt8k8cD3QEOPo4rP-26" value="" style="html=1;points=[];perimeter=orthogonalPerimeter;outlineConnect=0;targetShapes=umlLifeline;portConstraint=eastwest;newEdgeStyle={&quot;edgeStyle&quot;:&quot;elbowEdgeStyle&quot;,&quot;elbow&quot;:&quot;vertical&quot;,&quot;curved&quot;:0,&quot;rounded&quot;:0};" vertex="1" parent="q6NIXt8k8cD3QEOPo4rP-25">
          <mxGeometry x="45" y="60" width="10" height="200" as="geometry" />
        </mxCell>
        <mxCell id="q6NIXt8k8cD3QEOPo4rP-27" value="" style="html=1;points=[[0,0,0,0,5],[0,1,0,0,-5],[1,0,0,0,5],[1,1,0,0,-5]];perimeter=orthogonalPerimeter;outlineConnect=0;targetShapes=umlLifeline;portConstraint=eastwest;newEdgeStyle={&quot;curved&quot;:0,&quot;rounded&quot;:0};direction=south;" vertex="1" parent="q6NIXt8k8cD3QEOPo4rP-25">
          <mxGeometry x="40" y="290" width="20" height="15" as="geometry" />
        </mxCell>
        <mxCell id="q6NIXt8k8cD3QEOPo4rP-28" value="验证失败，弹出提示" style="html=1;align=left;spacingLeft=2;endArrow=block;rounded=0;edgeStyle=orthogonalEdgeStyle;curved=0;rounded=0;" edge="1" parent="q6NIXt8k8cD3QEOPo4rP-25" target="q6NIXt8k8cD3QEOPo4rP-27">
          <mxGeometry relative="1" as="geometry">
            <mxPoint x="55" y="149.9999999999999" as="sourcePoint" />
            <Array as="points">
              <mxPoint x="55" y="230" />
              <mxPoint x="80" y="230" />
              <mxPoint x="80" y="300" />
            </Array>
            <mxPoint x="55" y="254.9999999999999" as="targetPoint" />
          </mxGeometry>
        </mxCell>
        <mxCell id="q6NIXt8k8cD3QEOPo4rP-29" value="RegisterMapper" style="shape=umlLifeline;perimeter=lifelinePerimeter;whiteSpace=wrap;html=1;container=0;dropTarget=0;collapsible=0;recursiveResize=0;outlineConnect=0;portConstraint=eastwest;newEdgeStyle={&quot;edgeStyle&quot;:&quot;elbowEdgeStyle&quot;,&quot;elbow&quot;:&quot;vertical&quot;,&quot;curved&quot;:0,&quot;rounded&quot;:0};" vertex="1" parent="1">
          <mxGeometry x="520" y="440" width="100" height="300" as="geometry" />
        </mxCell>
        <mxCell id="q6NIXt8k8cD3QEOPo4rP-30" value="" style="html=1;points=[[0,0,0,0,5],[0,1,0,0,-5],[1,0,0,0,5],[1,1,0,0,-5]];perimeter=orthogonalPerimeter;outlineConnect=0;targetShapes=umlLifeline;portConstraint=eastwest;newEdgeStyle={&quot;curved&quot;:0,&quot;rounded&quot;:0};" vertex="1" parent="q6NIXt8k8cD3QEOPo4rP-29">
          <mxGeometry x="45" y="110" width="10" height="80" as="geometry" />
        </mxCell>
        <mxCell id="q6NIXt8k8cD3QEOPo4rP-31" value="" style="shape=umlLifeline;perimeter=lifelinePerimeter;whiteSpace=wrap;html=1;container=1;dropTarget=0;collapsible=0;recursiveResize=0;outlineConnect=0;portConstraint=eastwest;newEdgeStyle={&quot;curved&quot;:0,&quot;rounded&quot;:0};participant=umlActor;" vertex="1" parent="1">
          <mxGeometry x="-20" y="440" width="20" height="300" as="geometry" />
        </mxCell>
        <mxCell id="q6NIXt8k8cD3QEOPo4rP-32" value="dispatch" style="html=1;verticalAlign=bottom;startArrow=oval;endArrow=block;startSize=8;edgeStyle=elbowEdgeStyle;elbow=vertical;curved=0;rounded=0;" edge="1" parent="1" source="q6NIXt8k8cD3QEOPo4rP-31" target="q6NIXt8k8cD3QEOPo4rP-26">
          <mxGeometry relative="1" as="geometry">
            <mxPoint x="25" y="510" as="sourcePoint" />
            <Array as="points">
              <mxPoint x="80" y="520" />
            </Array>
          </mxGeometry>
        </mxCell>
        <mxCell id="q6NIXt8k8cD3QEOPo4rP-33" value="RegisterController" style="shape=umlLifeline;perimeter=lifelinePerimeter;whiteSpace=wrap;html=1;container=1;dropTarget=0;collapsible=0;recursiveResize=0;outlineConnect=0;portConstraint=eastwest;newEdgeStyle={&quot;curved&quot;:0,&quot;rounded&quot;:0};" vertex="1" parent="1">
          <mxGeometry x="190" y="440" width="100" height="300" as="geometry" />
        </mxCell>
        <mxCell id="q6NIXt8k8cD3QEOPo4rP-34" value="" style="html=1;points=[[0,0,0,0,5],[0,1,0,0,-5],[1,0,0,0,5],[1,1,0,0,-5]];perimeter=orthogonalPerimeter;outlineConnect=0;targetShapes=umlLifeline;portConstraint=eastwest;newEdgeStyle={&quot;curved&quot;:0,&quot;rounded&quot;:0};" vertex="1" parent="q6NIXt8k8cD3QEOPo4rP-33">
          <mxGeometry x="45" y="70" width="10" height="150" as="geometry" />
        </mxCell>
        <mxCell id="q6NIXt8k8cD3QEOPo4rP-35" value="RegisterService" style="shape=umlLifeline;perimeter=lifelinePerimeter;whiteSpace=wrap;html=1;container=1;dropTarget=0;collapsible=0;recursiveResize=0;outlineConnect=0;portConstraint=eastwest;newEdgeStyle={&quot;curved&quot;:0,&quot;rounded&quot;:0};" vertex="1" parent="1">
          <mxGeometry x="360" y="440" width="100" height="300" as="geometry" />
        </mxCell>
        <mxCell id="q6NIXt8k8cD3QEOPo4rP-36" value="" style="html=1;points=[[0,0,0,0,5],[0,1,0,0,-5],[1,0,0,0,5],[1,1,0,0,-5]];perimeter=orthogonalPerimeter;outlineConnect=0;targetShapes=umlLifeline;portConstraint=eastwest;newEdgeStyle={&quot;curved&quot;:0,&quot;rounded&quot;:0};" vertex="1" parent="q6NIXt8k8cD3QEOPo4rP-35">
          <mxGeometry x="45" y="90" width="10" height="120" as="geometry" />
        </mxCell>
        <mxCell id="q6NIXt8k8cD3QEOPo4rP-37" value="填写账号、密码、&lt;div&gt;验证码，点击注册，&lt;div&gt;调用后端/regist接口&lt;/div&gt;&lt;/div&gt;" style="html=1;verticalAlign=bottom;endArrow=block;curved=0;rounded=0;entryX=0;entryY=0;entryDx=0;entryDy=5;entryPerimeter=0;" edge="1" parent="1">
          <mxGeometry width="80" relative="1" as="geometry">
            <mxPoint x="95" y="530" as="sourcePoint" />
            <mxPoint x="235" y="530" as="targetPoint" />
            <mxPoint as="offset" />
          </mxGeometry>
        </mxCell>
        <mxCell id="q6NIXt8k8cD3QEOPo4rP-38" value="调用Service层处理注册业务逻辑" style="html=1;verticalAlign=bottom;endArrow=block;curved=0;rounded=0;" edge="1" parent="1">
          <mxGeometry width="80" relative="1" as="geometry">
            <mxPoint x="245" y="550" as="sourcePoint" />
            <mxPoint x="405" y="550" as="targetPoint" />
            <mxPoint as="offset" />
          </mxGeometry>
        </mxCell>
        <mxCell id="q6NIXt8k8cD3QEOPo4rP-39" value="调用Mapper层执行&lt;div&gt;具体的sql语句查询数据库&lt;/div&gt;" style="html=1;verticalAlign=bottom;endArrow=block;curved=0;rounded=0;" edge="1" parent="1">
          <mxGeometry x="0.0032" width="80" relative="1" as="geometry">
            <mxPoint x="415" y="560" as="sourcePoint" />
            <mxPoint x="565" y="560" as="targetPoint" />
            <mxPoint as="offset" />
          </mxGeometry>
        </mxCell>
        <mxCell id="q6NIXt8k8cD3QEOPo4rP-40" value="return查询结果" style="html=1;verticalAlign=bottom;endArrow=open;dashed=1;endSize=8;curved=0;rounded=0;" edge="1" parent="1">
          <mxGeometry relative="1" as="geometry">
            <mxPoint x="565" y="580" as="sourcePoint" />
            <mxPoint x="415" y="580" as="targetPoint" />
          </mxGeometry>
        </mxCell>
        <mxCell id="q6NIXt8k8cD3QEOPo4rP-41" value="根据查询结果，判断用户是否已经存在" style="html=1;verticalAlign=bottom;endArrow=open;dashed=1;endSize=8;curved=0;rounded=0;" edge="1" parent="1">
          <mxGeometry x="0.0323" y="-10" relative="1" as="geometry">
            <mxPoint x="405" y="589.71" as="sourcePoint" />
            <mxPoint x="250" y="589.71" as="targetPoint" />
            <mxPoint as="offset" />
          </mxGeometry>
        </mxCell>
        <mxCell id="q6NIXt8k8cD3QEOPo4rP-42" value="存在，返回封装的失败信息" style="html=1;verticalAlign=bottom;endArrow=open;dashed=1;endSize=8;curved=0;rounded=0;" edge="1" parent="1">
          <mxGeometry x="-0.0011" relative="1" as="geometry">
            <mxPoint x="235" y="600" as="sourcePoint" />
            <mxPoint x="100" y="600" as="targetPoint" />
            <mxPoint as="offset" />
          </mxGeometry>
        </mxCell>
        <mxCell id="q6NIXt8k8cD3QEOPo4rP-43" value="login.vue" style="shape=umlLifeline;perimeter=lifelinePerimeter;whiteSpace=wrap;html=1;container=1;dropTarget=0;collapsible=0;recursiveResize=0;outlineConnect=0;portConstraint=eastwest;newEdgeStyle={&quot;curved&quot;:0,&quot;rounded&quot;:0};" vertex="1" parent="1">
          <mxGeometry x="670" y="440" width="100" height="300" as="geometry" />
        </mxCell>
        <mxCell id="q6NIXt8k8cD3QEOPo4rP-44" value="" style="html=1;points=[[0,0,0,0,5],[0,1,0,0,-5],[1,0,0,0,5],[1,1,0,0,-5]];perimeter=orthogonalPerimeter;outlineConnect=0;targetShapes=umlLifeline;portConstraint=eastwest;newEdgeStyle={&quot;curved&quot;:0,&quot;rounded&quot;:0};" vertex="1" parent="q6NIXt8k8cD3QEOPo4rP-43">
          <mxGeometry x="45" y="240" width="10" height="20" as="geometry" />
        </mxCell>
        <mxCell id="q6NIXt8k8cD3QEOPo4rP-45" value="验证通过，弹出注册成功提示，跳转到登录页login.vue" style="html=1;verticalAlign=bottom;endArrow=block;curved=0;rounded=0;" edge="1" parent="1" target="q6NIXt8k8cD3QEOPo4rP-44">
          <mxGeometry x="0.371" width="80" relative="1" as="geometry">
            <mxPoint x="95" y="690" as="sourcePoint" />
            <mxPoint x="719.5" y="690" as="targetPoint" />
            <mxPoint as="offset" />
          </mxGeometry>
        </mxCell>
        <mxCell id="q6NIXt8k8cD3QEOPo4rP-46" value="不存在，调用Mapper&lt;div&gt;层插入用户数据&lt;/div&gt;" style="html=1;verticalAlign=bottom;endArrow=block;curved=0;rounded=0;" edge="1" parent="1">
          <mxGeometry width="80" relative="1" as="geometry">
            <mxPoint x="415" y="610" as="sourcePoint" />
            <mxPoint x="565" y="610" as="targetPoint" />
          </mxGeometry>
        </mxCell>
        <mxCell id="q6NIXt8k8cD3QEOPo4rP-50" value="返回插入结果" style="html=1;verticalAlign=bottom;endArrow=open;dashed=1;endSize=8;curved=0;rounded=0;" edge="1" parent="1" target="q6NIXt8k8cD3QEOPo4rP-36">
          <mxGeometry relative="1" as="geometry">
            <mxPoint x="570" y="630" as="sourcePoint" />
            <mxPoint x="420" y="630" as="targetPoint" />
          </mxGeometry>
        </mxCell>
        <mxCell id="q6NIXt8k8cD3QEOPo4rP-51" value="返回封装结果" style="html=1;verticalAlign=bottom;endArrow=open;dashed=1;endSize=8;curved=0;rounded=0;" edge="1" parent="1" target="q6NIXt8k8cD3QEOPo4rP-34">
          <mxGeometry relative="1" as="geometry">
            <mxPoint x="400" y="640" as="sourcePoint" />
            <mxPoint x="250" y="640" as="targetPoint" />
            <mxPoint as="offset" />
          </mxGeometry>
        </mxCell>
        <mxCell id="q6NIXt8k8cD3QEOPo4rP-52" value="返回统一封装结果" style="html=1;verticalAlign=bottom;endArrow=open;dashed=1;endSize=8;curved=0;rounded=0;" edge="1" parent="1" target="q6NIXt8k8cD3QEOPo4rP-26">
          <mxGeometry relative="1" as="geometry">
            <mxPoint x="230" y="650" as="sourcePoint" />
            <mxPoint x="150" y="650" as="targetPoint" />
          </mxGeometry>
        </mxCell>
        <mxCell id="q6NIXt8k8cD3QEOPo4rP-74" value="publish.vue" style="shape=umlLifeline;perimeter=lifelinePerimeter;whiteSpace=wrap;html=1;container=0;dropTarget=0;collapsible=0;recursiveResize=0;outlineConnect=0;portConstraint=eastwest;newEdgeStyle={&quot;edgeStyle&quot;:&quot;elbowEdgeStyle&quot;,&quot;elbow&quot;:&quot;vertical&quot;,&quot;curved&quot;:0,&quot;rounded&quot;:0};" vertex="1" parent="1">
          <mxGeometry y="920" width="100" height="310" as="geometry" />
        </mxCell>
        <mxCell id="q6NIXt8k8cD3QEOPo4rP-75" value="" style="html=1;points=[];perimeter=orthogonalPerimeter;outlineConnect=0;targetShapes=umlLifeline;portConstraint=eastwest;newEdgeStyle={&quot;edgeStyle&quot;:&quot;elbowEdgeStyle&quot;,&quot;elbow&quot;:&quot;vertical&quot;,&quot;curved&quot;:0,&quot;rounded&quot;:0};" vertex="1" parent="q6NIXt8k8cD3QEOPo4rP-74">
          <mxGeometry x="45" y="60" width="10" height="200" as="geometry" />
        </mxCell>
        <mxCell id="q6NIXt8k8cD3QEOPo4rP-76" value="" style="html=1;points=[[0,0,0,0,5],[0,1,0,0,-5],[1,0,0,0,5],[1,1,0,0,-5]];perimeter=orthogonalPerimeter;outlineConnect=0;targetShapes=umlLifeline;portConstraint=eastwest;newEdgeStyle={&quot;curved&quot;:0,&quot;rounded&quot;:0};direction=south;" vertex="1" parent="q6NIXt8k8cD3QEOPo4rP-74">
          <mxGeometry x="40" y="290" width="20" height="15" as="geometry" />
        </mxCell>
        <mxCell id="q6NIXt8k8cD3QEOPo4rP-77" value="验证失败，弹出提示" style="html=1;align=left;spacingLeft=2;endArrow=block;rounded=0;edgeStyle=orthogonalEdgeStyle;curved=0;rounded=0;" edge="1" parent="q6NIXt8k8cD3QEOPo4rP-74" target="q6NIXt8k8cD3QEOPo4rP-76">
          <mxGeometry relative="1" as="geometry">
            <mxPoint x="55" y="149.9999999999999" as="sourcePoint" />
            <Array as="points">
              <mxPoint x="55" y="230" />
              <mxPoint x="80" y="230" />
              <mxPoint x="80" y="300" />
            </Array>
            <mxPoint x="55" y="254.9999999999999" as="targetPoint" />
          </mxGeometry>
        </mxCell>
        <mxCell id="q6NIXt8k8cD3QEOPo4rP-78" value="PostMapper" style="shape=umlLifeline;perimeter=lifelinePerimeter;whiteSpace=wrap;html=1;container=0;dropTarget=0;collapsible=0;recursiveResize=0;outlineConnect=0;portConstraint=eastwest;newEdgeStyle={&quot;edgeStyle&quot;:&quot;elbowEdgeStyle&quot;,&quot;elbow&quot;:&quot;vertical&quot;,&quot;curved&quot;:0,&quot;rounded&quot;:0};" vertex="1" parent="1">
          <mxGeometry x="480" y="920" width="100" height="300" as="geometry" />
        </mxCell>
        <mxCell id="q6NIXt8k8cD3QEOPo4rP-79" value="" style="html=1;points=[[0,0,0,0,5],[0,1,0,0,-5],[1,0,0,0,5],[1,1,0,0,-5]];perimeter=orthogonalPerimeter;outlineConnect=0;targetShapes=umlLifeline;portConstraint=eastwest;newEdgeStyle={&quot;curved&quot;:0,&quot;rounded&quot;:0};" vertex="1" parent="q6NIXt8k8cD3QEOPo4rP-78">
          <mxGeometry x="45" y="110" width="10" height="80" as="geometry" />
        </mxCell>
        <mxCell id="q6NIXt8k8cD3QEOPo4rP-80" value="" style="shape=umlLifeline;perimeter=lifelinePerimeter;whiteSpace=wrap;html=1;container=1;dropTarget=0;collapsible=0;recursiveResize=0;outlineConnect=0;portConstraint=eastwest;newEdgeStyle={&quot;curved&quot;:0,&quot;rounded&quot;:0};participant=umlActor;" vertex="1" parent="1">
          <mxGeometry x="-60" y="920" width="20" height="300" as="geometry" />
        </mxCell>
        <mxCell id="q6NIXt8k8cD3QEOPo4rP-81" value="dispatch" style="html=1;verticalAlign=bottom;startArrow=oval;endArrow=block;startSize=8;edgeStyle=elbowEdgeStyle;elbow=vertical;curved=0;rounded=0;" edge="1" parent="1" source="q6NIXt8k8cD3QEOPo4rP-80" target="q6NIXt8k8cD3QEOPo4rP-75">
          <mxGeometry relative="1" as="geometry">
            <mxPoint x="-15" y="990" as="sourcePoint" />
            <Array as="points">
              <mxPoint x="40" y="1000" />
            </Array>
          </mxGeometry>
        </mxCell>
        <mxCell id="q6NIXt8k8cD3QEOPo4rP-82" value="PostController" style="shape=umlLifeline;perimeter=lifelinePerimeter;whiteSpace=wrap;html=1;container=1;dropTarget=0;collapsible=0;recursiveResize=0;outlineConnect=0;portConstraint=eastwest;newEdgeStyle={&quot;curved&quot;:0,&quot;rounded&quot;:0};" vertex="1" parent="1">
          <mxGeometry x="150" y="920" width="100" height="300" as="geometry" />
        </mxCell>
        <mxCell id="q6NIXt8k8cD3QEOPo4rP-83" value="" style="html=1;points=[[0,0,0,0,5],[0,1,0,0,-5],[1,0,0,0,5],[1,1,0,0,-5]];perimeter=orthogonalPerimeter;outlineConnect=0;targetShapes=umlLifeline;portConstraint=eastwest;newEdgeStyle={&quot;curved&quot;:0,&quot;rounded&quot;:0};" vertex="1" parent="q6NIXt8k8cD3QEOPo4rP-82">
          <mxGeometry x="45" y="70" width="10" height="150" as="geometry" />
        </mxCell>
        <mxCell id="q6NIXt8k8cD3QEOPo4rP-84" value="PostService" style="shape=umlLifeline;perimeter=lifelinePerimeter;whiteSpace=wrap;html=1;container=1;dropTarget=0;collapsible=0;recursiveResize=0;outlineConnect=0;portConstraint=eastwest;newEdgeStyle={&quot;curved&quot;:0,&quot;rounded&quot;:0};" vertex="1" parent="1">
          <mxGeometry x="320" y="920" width="100" height="300" as="geometry" />
        </mxCell>
        <mxCell id="q6NIXt8k8cD3QEOPo4rP-85" value="" style="html=1;points=[[0,0,0,0,5],[0,1,0,0,-5],[1,0,0,0,5],[1,1,0,0,-5]];perimeter=orthogonalPerimeter;outlineConnect=0;targetShapes=umlLifeline;portConstraint=eastwest;newEdgeStyle={&quot;curved&quot;:0,&quot;rounded&quot;:0};" vertex="1" parent="q6NIXt8k8cD3QEOPo4rP-84">
          <mxGeometry x="45" y="90" width="10" height="120" as="geometry" />
        </mxCell>
        <mxCell id="q6NIXt8k8cD3QEOPo4rP-86" value="填写帖子相关信息，&lt;div&gt;点击发布，调用&lt;/div&gt;&lt;div&gt;后端/post/add接口&lt;/div&gt;" style="html=1;verticalAlign=bottom;endArrow=block;curved=0;rounded=0;entryX=0;entryY=0;entryDx=0;entryDy=5;entryPerimeter=0;" edge="1" parent="1">
          <mxGeometry x="0.0041" width="80" relative="1" as="geometry">
            <mxPoint x="55" y="1010" as="sourcePoint" />
            <mxPoint x="195" y="1010" as="targetPoint" />
            <mxPoint as="offset" />
          </mxGeometry>
        </mxCell>
        <mxCell id="q6NIXt8k8cD3QEOPo4rP-87" value="调用Service层insert方法&lt;div&gt;处理新增帖子业务逻辑&lt;/div&gt;" style="html=1;verticalAlign=bottom;endArrow=block;curved=0;rounded=0;" edge="1" parent="1">
          <mxGeometry width="80" relative="1" as="geometry">
            <mxPoint x="205" y="1030" as="sourcePoint" />
            <mxPoint x="365" y="1030" as="targetPoint" />
          </mxGeometry>
        </mxCell>
        <mxCell id="q6NIXt8k8cD3QEOPo4rP-88" value="调用Mapper层执行&lt;div&gt;sql插入帖子记录到数据库&lt;/div&gt;" style="html=1;verticalAlign=bottom;endArrow=block;curved=0;rounded=0;" edge="1" parent="1">
          <mxGeometry width="80" relative="1" as="geometry">
            <mxPoint x="375" y="1040" as="sourcePoint" />
            <mxPoint x="525" y="1040" as="targetPoint" />
          </mxGeometry>
        </mxCell>
        <mxCell id="q6NIXt8k8cD3QEOPo4rP-89" value="return查询结果" style="html=1;verticalAlign=bottom;endArrow=open;dashed=1;endSize=8;curved=0;rounded=0;" edge="1" parent="1" target="q6NIXt8k8cD3QEOPo4rP-85">
          <mxGeometry relative="1" as="geometry">
            <mxPoint x="525" y="1100" as="sourcePoint" />
            <mxPoint x="380" y="1100" as="targetPoint" />
          </mxGeometry>
        </mxCell>
        <mxCell id="q6NIXt8k8cD3QEOPo4rP-90" value="根据查询结果，执行&lt;div&gt;判断逻辑，封装统&lt;/div&gt;&lt;div&gt;一返回结果R并返回&lt;/div&gt;" style="html=1;verticalAlign=bottom;endArrow=open;dashed=1;endSize=8;curved=0;rounded=0;" edge="1" parent="1" target="q6NIXt8k8cD3QEOPo4rP-83">
          <mxGeometry x="0.0323" y="-10" relative="1" as="geometry">
            <mxPoint x="360" y="1120" as="sourcePoint" />
            <mxPoint x="280" y="1120" as="targetPoint" />
            <mxPoint as="offset" />
          </mxGeometry>
        </mxCell>
        <mxCell id="q6NIXt8k8cD3QEOPo4rP-91" value="return封装好的统一返回结果" style="html=1;verticalAlign=bottom;endArrow=open;dashed=1;endSize=8;curved=0;rounded=0;" edge="1" parent="1" target="q6NIXt8k8cD3QEOPo4rP-75">
          <mxGeometry x="0.0018" relative="1" as="geometry">
            <mxPoint x="190" y="1130" as="sourcePoint" />
            <mxPoint x="60" y="1130" as="targetPoint" />
            <mxPoint as="offset" />
          </mxGeometry>
        </mxCell>
        <mxCell id="q6NIXt8k8cD3QEOPo4rP-92" value="index.vue" style="shape=umlLifeline;perimeter=lifelinePerimeter;whiteSpace=wrap;html=1;container=1;dropTarget=0;collapsible=0;recursiveResize=0;outlineConnect=0;portConstraint=eastwest;newEdgeStyle={&quot;curved&quot;:0,&quot;rounded&quot;:0};" vertex="1" parent="1">
          <mxGeometry x="630" y="920" width="100" height="300" as="geometry" />
        </mxCell>
        <mxCell id="q6NIXt8k8cD3QEOPo4rP-93" value="" style="html=1;points=[[0,0,0,0,5],[0,1,0,0,-5],[1,0,0,0,5],[1,1,0,0,-5]];perimeter=orthogonalPerimeter;outlineConnect=0;targetShapes=umlLifeline;portConstraint=eastwest;newEdgeStyle={&quot;curved&quot;:0,&quot;rounded&quot;:0};" vertex="1" parent="q6NIXt8k8cD3QEOPo4rP-92">
          <mxGeometry x="45" y="240" width="10" height="20" as="geometry" />
        </mxCell>
        <mxCell id="q6NIXt8k8cD3QEOPo4rP-94" value="验证通过，弹出发布成功提示，跳转到首页index.vue" style="html=1;verticalAlign=bottom;endArrow=block;curved=0;rounded=0;" edge="1" parent="1" target="q6NIXt8k8cD3QEOPo4rP-93">
          <mxGeometry width="80" relative="1" as="geometry">
            <mxPoint x="55" y="1170" as="sourcePoint" />
            <mxPoint x="679.5" y="1170" as="targetPoint" />
          </mxGeometry>
        </mxCell>
        <mxCell id="q6NIXt8k8cD3QEOPo4rP-137" value="search.vue" style="shape=umlLifeline;perimeter=lifelinePerimeter;whiteSpace=wrap;html=1;container=0;dropTarget=0;collapsible=0;recursiveResize=0;outlineConnect=0;portConstraint=eastwest;newEdgeStyle={&quot;edgeStyle&quot;:&quot;elbowEdgeStyle&quot;,&quot;elbow&quot;:&quot;vertical&quot;,&quot;curved&quot;:0,&quot;rounded&quot;:0};" vertex="1" parent="1">
          <mxGeometry y="1300" width="100" height="310" as="geometry" />
        </mxCell>
        <mxCell id="q6NIXt8k8cD3QEOPo4rP-138" value="" style="html=1;points=[];perimeter=orthogonalPerimeter;outlineConnect=0;targetShapes=umlLifeline;portConstraint=eastwest;newEdgeStyle={&quot;edgeStyle&quot;:&quot;elbowEdgeStyle&quot;,&quot;elbow&quot;:&quot;vertical&quot;,&quot;curved&quot;:0,&quot;rounded&quot;:0};" vertex="1" parent="q6NIXt8k8cD3QEOPo4rP-137">
          <mxGeometry x="45" y="60" width="10" height="200" as="geometry" />
        </mxCell>
        <mxCell id="q6NIXt8k8cD3QEOPo4rP-159" value="" style="html=1;points=[[0,0,0,0,5],[0,1,0,0,-5],[1,0,0,0,5],[1,1,0,0,-5]];perimeter=orthogonalPerimeter;outlineConnect=0;targetShapes=umlLifeline;portConstraint=eastwest;newEdgeStyle={&quot;curved&quot;:0,&quot;rounded&quot;:0};" vertex="1" parent="q6NIXt8k8cD3QEOPo4rP-137">
          <mxGeometry x="45" y="270" width="10" height="40" as="geometry" />
        </mxCell>
        <mxCell id="q6NIXt8k8cD3QEOPo4rP-160" value="将返回的数据渲染&lt;div&gt;到页面中进行展示&lt;/div&gt;" style="html=1;align=left;spacingLeft=2;endArrow=block;rounded=0;edgeStyle=orthogonalEdgeStyle;curved=0;rounded=0;" edge="1" target="q6NIXt8k8cD3QEOPo4rP-159" parent="q6NIXt8k8cD3QEOPo4rP-137" source="q6NIXt8k8cD3QEOPo4rP-138">
          <mxGeometry relative="1" as="geometry">
            <mxPoint x="60" y="250" as="sourcePoint" />
            <Array as="points">
              <mxPoint x="80" y="240" />
              <mxPoint x="80" y="280" />
            </Array>
          </mxGeometry>
        </mxCell>
        <mxCell id="q6NIXt8k8cD3QEOPo4rP-141" value="PostMapper" style="shape=umlLifeline;perimeter=lifelinePerimeter;whiteSpace=wrap;html=1;container=0;dropTarget=0;collapsible=0;recursiveResize=0;outlineConnect=0;portConstraint=eastwest;newEdgeStyle={&quot;edgeStyle&quot;:&quot;elbowEdgeStyle&quot;,&quot;elbow&quot;:&quot;vertical&quot;,&quot;curved&quot;:0,&quot;rounded&quot;:0};" vertex="1" parent="1">
          <mxGeometry x="480" y="1300" width="100" height="300" as="geometry" />
        </mxCell>
        <mxCell id="q6NIXt8k8cD3QEOPo4rP-142" value="" style="html=1;points=[[0,0,0,0,5],[0,1,0,0,-5],[1,0,0,0,5],[1,1,0,0,-5]];perimeter=orthogonalPerimeter;outlineConnect=0;targetShapes=umlLifeline;portConstraint=eastwest;newEdgeStyle={&quot;curved&quot;:0,&quot;rounded&quot;:0};" vertex="1" parent="q6NIXt8k8cD3QEOPo4rP-141">
          <mxGeometry x="45" y="110" width="10" height="80" as="geometry" />
        </mxCell>
        <mxCell id="q6NIXt8k8cD3QEOPo4rP-143" value="" style="shape=umlLifeline;perimeter=lifelinePerimeter;whiteSpace=wrap;html=1;container=1;dropTarget=0;collapsible=0;recursiveResize=0;outlineConnect=0;portConstraint=eastwest;newEdgeStyle={&quot;curved&quot;:0,&quot;rounded&quot;:0};participant=umlActor;" vertex="1" parent="1">
          <mxGeometry x="-60" y="1300" width="20" height="300" as="geometry" />
        </mxCell>
        <mxCell id="q6NIXt8k8cD3QEOPo4rP-144" value="dispatch" style="html=1;verticalAlign=bottom;startArrow=oval;endArrow=block;startSize=8;edgeStyle=elbowEdgeStyle;elbow=vertical;curved=0;rounded=0;" edge="1" parent="1" source="q6NIXt8k8cD3QEOPo4rP-143" target="q6NIXt8k8cD3QEOPo4rP-138">
          <mxGeometry relative="1" as="geometry">
            <mxPoint x="-15" y="1370" as="sourcePoint" />
            <Array as="points">
              <mxPoint x="40" y="1380" />
            </Array>
          </mxGeometry>
        </mxCell>
        <mxCell id="q6NIXt8k8cD3QEOPo4rP-145" value="PostController" style="shape=umlLifeline;perimeter=lifelinePerimeter;whiteSpace=wrap;html=1;container=1;dropTarget=0;collapsible=0;recursiveResize=0;outlineConnect=0;portConstraint=eastwest;newEdgeStyle={&quot;curved&quot;:0,&quot;rounded&quot;:0};" vertex="1" parent="1">
          <mxGeometry x="150" y="1300" width="100" height="300" as="geometry" />
        </mxCell>
        <mxCell id="q6NIXt8k8cD3QEOPo4rP-146" value="" style="html=1;points=[[0,0,0,0,5],[0,1,0,0,-5],[1,0,0,0,5],[1,1,0,0,-5]];perimeter=orthogonalPerimeter;outlineConnect=0;targetShapes=umlLifeline;portConstraint=eastwest;newEdgeStyle={&quot;curved&quot;:0,&quot;rounded&quot;:0};" vertex="1" parent="q6NIXt8k8cD3QEOPo4rP-145">
          <mxGeometry x="45" y="70" width="10" height="150" as="geometry" />
        </mxCell>
        <mxCell id="q6NIXt8k8cD3QEOPo4rP-147" value="PostService" style="shape=umlLifeline;perimeter=lifelinePerimeter;whiteSpace=wrap;html=1;container=1;dropTarget=0;collapsible=0;recursiveResize=0;outlineConnect=0;portConstraint=eastwest;newEdgeStyle={&quot;curved&quot;:0,&quot;rounded&quot;:0};" vertex="1" parent="1">
          <mxGeometry x="320" y="1300" width="100" height="300" as="geometry" />
        </mxCell>
        <mxCell id="q6NIXt8k8cD3QEOPo4rP-148" value="" style="html=1;points=[[0,0,0,0,5],[0,1,0,0,-5],[1,0,0,0,5],[1,1,0,0,-5]];perimeter=orthogonalPerimeter;outlineConnect=0;targetShapes=umlLifeline;portConstraint=eastwest;newEdgeStyle={&quot;curved&quot;:0,&quot;rounded&quot;:0};" vertex="1" parent="q6NIXt8k8cD3QEOPo4rP-147">
          <mxGeometry x="45" y="90" width="10" height="120" as="geometry" />
        </mxCell>
        <mxCell id="q6NIXt8k8cD3QEOPo4rP-149" value="输入搜索内容后点击&lt;div&gt;搜索，调用后端/search接口&lt;/div&gt;" style="html=1;verticalAlign=bottom;endArrow=block;curved=0;rounded=0;entryX=0;entryY=0;entryDx=0;entryDy=5;entryPerimeter=0;" edge="1" parent="1">
          <mxGeometry x="0.0041" width="80" relative="1" as="geometry">
            <mxPoint x="55" y="1390" as="sourcePoint" />
            <mxPoint x="195" y="1390" as="targetPoint" />
            <mxPoint as="offset" />
          </mxGeometry>
        </mxCell>
        <mxCell id="q6NIXt8k8cD3QEOPo4rP-150" value="调用Service层search方法&lt;div&gt;处理搜索内容业务逻辑&lt;/div&gt;" style="html=1;verticalAlign=bottom;endArrow=block;curved=0;rounded=0;" edge="1" parent="1">
          <mxGeometry width="80" relative="1" as="geometry">
            <mxPoint x="205" y="1410" as="sourcePoint" />
            <mxPoint x="365" y="1410" as="targetPoint" />
            <mxPoint as="offset" />
          </mxGeometry>
        </mxCell>
        <mxCell id="q6NIXt8k8cD3QEOPo4rP-151" value="调用Mapper层搜索&lt;div&gt;帖子或用户记录&lt;/div&gt;" style="html=1;verticalAlign=bottom;endArrow=block;curved=0;rounded=0;" edge="1" parent="1">
          <mxGeometry x="-0.0019" width="80" relative="1" as="geometry">
            <mxPoint x="375" y="1420" as="sourcePoint" />
            <mxPoint x="525" y="1420" as="targetPoint" />
            <mxPoint as="offset" />
          </mxGeometry>
        </mxCell>
        <mxCell id="q6NIXt8k8cD3QEOPo4rP-152" value="return查询结果" style="html=1;verticalAlign=bottom;endArrow=open;dashed=1;endSize=8;curved=0;rounded=0;" edge="1" parent="1" target="q6NIXt8k8cD3QEOPo4rP-148">
          <mxGeometry x="-0.0019" relative="1" as="geometry">
            <mxPoint x="525" y="1480" as="sourcePoint" />
            <mxPoint x="380" y="1480" as="targetPoint" />
            <mxPoint as="offset" />
          </mxGeometry>
        </mxCell>
        <mxCell id="q6NIXt8k8cD3QEOPo4rP-153" value="根据查询结果，执行&lt;div&gt;判断逻辑，封装统&lt;/div&gt;&lt;div&gt;一返回结果R并返回&lt;/div&gt;" style="html=1;verticalAlign=bottom;endArrow=open;dashed=1;endSize=8;curved=0;rounded=0;" edge="1" parent="1" target="q6NIXt8k8cD3QEOPo4rP-146">
          <mxGeometry x="0.0323" y="-10" relative="1" as="geometry">
            <mxPoint x="360" y="1500" as="sourcePoint" />
            <mxPoint x="280" y="1500" as="targetPoint" />
            <mxPoint as="offset" />
          </mxGeometry>
        </mxCell>
        <mxCell id="q6NIXt8k8cD3QEOPo4rP-154" value="return封装好的统一返回结果" style="html=1;verticalAlign=bottom;endArrow=open;dashed=1;endSize=8;curved=0;rounded=0;" edge="1" parent="1" target="q6NIXt8k8cD3QEOPo4rP-138">
          <mxGeometry x="0.0018" relative="1" as="geometry">
            <mxPoint x="190" y="1510" as="sourcePoint" />
            <mxPoint x="60" y="1510" as="targetPoint" />
            <mxPoint as="offset" />
          </mxGeometry>
        </mxCell>
        <mxCell id="q6NIXt8k8cD3QEOPo4rP-179" value="dialogue.vue" style="shape=umlLifeline;perimeter=lifelinePerimeter;whiteSpace=wrap;html=1;container=0;dropTarget=0;collapsible=0;recursiveResize=0;outlineConnect=0;portConstraint=eastwest;newEdgeStyle={&quot;edgeStyle&quot;:&quot;elbowEdgeStyle&quot;,&quot;elbow&quot;:&quot;vertical&quot;,&quot;curved&quot;:0,&quot;rounded&quot;:0};" vertex="1" parent="1">
          <mxGeometry y="1680" width="100" height="310" as="geometry" />
        </mxCell>
        <mxCell id="q6NIXt8k8cD3QEOPo4rP-180" value="" style="html=1;points=[];perimeter=orthogonalPerimeter;outlineConnect=0;targetShapes=umlLifeline;portConstraint=eastwest;newEdgeStyle={&quot;edgeStyle&quot;:&quot;elbowEdgeStyle&quot;,&quot;elbow&quot;:&quot;vertical&quot;,&quot;curved&quot;:0,&quot;rounded&quot;:0};" vertex="1" parent="q6NIXt8k8cD3QEOPo4rP-179">
          <mxGeometry x="45" y="60" width="10" height="200" as="geometry" />
        </mxCell>
        <mxCell id="q6NIXt8k8cD3QEOPo4rP-181" value="" style="html=1;points=[[0,0,0,0,5],[0,1,0,0,-5],[1,0,0,0,5],[1,1,0,0,-5]];perimeter=orthogonalPerimeter;outlineConnect=0;targetShapes=umlLifeline;portConstraint=eastwest;newEdgeStyle={&quot;curved&quot;:0,&quot;rounded&quot;:0};" vertex="1" parent="q6NIXt8k8cD3QEOPo4rP-179">
          <mxGeometry x="45" y="270" width="10" height="40" as="geometry" />
        </mxCell>
        <mxCell id="q6NIXt8k8cD3QEOPo4rP-182" value="将返回的数据渲染&lt;div&gt;到页面中进行展示&lt;/div&gt;" style="html=1;align=left;spacingLeft=2;endArrow=block;rounded=0;edgeStyle=orthogonalEdgeStyle;curved=0;rounded=0;" edge="1" parent="q6NIXt8k8cD3QEOPo4rP-179" source="q6NIXt8k8cD3QEOPo4rP-180" target="q6NIXt8k8cD3QEOPo4rP-181">
          <mxGeometry relative="1" as="geometry">
            <mxPoint x="60" y="250" as="sourcePoint" />
            <Array as="points">
              <mxPoint x="80" y="240" />
              <mxPoint x="80" y="280" />
            </Array>
          </mxGeometry>
        </mxCell>
        <mxCell id="q6NIXt8k8cD3QEOPo4rP-185" value="" style="shape=umlLifeline;perimeter=lifelinePerimeter;whiteSpace=wrap;html=1;container=1;dropTarget=0;collapsible=0;recursiveResize=0;outlineConnect=0;portConstraint=eastwest;newEdgeStyle={&quot;curved&quot;:0,&quot;rounded&quot;:0};participant=umlActor;" vertex="1" parent="1">
          <mxGeometry x="-60" y="1680" width="20" height="300" as="geometry" />
        </mxCell>
        <mxCell id="q6NIXt8k8cD3QEOPo4rP-186" value="dispatch" style="html=1;verticalAlign=bottom;startArrow=oval;endArrow=block;startSize=8;edgeStyle=elbowEdgeStyle;elbow=vertical;curved=0;rounded=0;" edge="1" parent="1" source="q6NIXt8k8cD3QEOPo4rP-185" target="q6NIXt8k8cD3QEOPo4rP-180">
          <mxGeometry relative="1" as="geometry">
            <mxPoint x="-15" y="1750" as="sourcePoint" />
            <Array as="points">
              <mxPoint x="40" y="1760" />
            </Array>
          </mxGeometry>
        </mxCell>
        <mxCell id="q6NIXt8k8cD3QEOPo4rP-187" value="DialogueController" style="shape=umlLifeline;perimeter=lifelinePerimeter;whiteSpace=wrap;html=1;container=1;dropTarget=0;collapsible=0;recursiveResize=0;outlineConnect=0;portConstraint=eastwest;newEdgeStyle={&quot;curved&quot;:0,&quot;rounded&quot;:0};" vertex="1" parent="1">
          <mxGeometry x="150" y="1680" width="100" height="300" as="geometry" />
        </mxCell>
        <mxCell id="q6NIXt8k8cD3QEOPo4rP-188" value="" style="html=1;points=[[0,0,0,0,5],[0,1,0,0,-5],[1,0,0,0,5],[1,1,0,0,-5]];perimeter=orthogonalPerimeter;outlineConnect=0;targetShapes=umlLifeline;portConstraint=eastwest;newEdgeStyle={&quot;curved&quot;:0,&quot;rounded&quot;:0};" vertex="1" parent="q6NIXt8k8cD3QEOPo4rP-187">
          <mxGeometry x="45" y="70" width="10" height="150" as="geometry" />
        </mxCell>
        <mxCell id="q6NIXt8k8cD3QEOPo4rP-189" value="DialogueService" style="shape=umlLifeline;perimeter=lifelinePerimeter;whiteSpace=wrap;html=1;container=1;dropTarget=0;collapsible=0;recursiveResize=0;outlineConnect=0;portConstraint=eastwest;newEdgeStyle={&quot;curved&quot;:0,&quot;rounded&quot;:0};" vertex="1" parent="1">
          <mxGeometry x="320" y="1680" width="100" height="300" as="geometry" />
        </mxCell>
        <mxCell id="q6NIXt8k8cD3QEOPo4rP-190" value="" style="html=1;points=[[0,0,0,0,5],[0,1,0,0,-5],[1,0,0,0,5],[1,1,0,0,-5]];perimeter=orthogonalPerimeter;outlineConnect=0;targetShapes=umlLifeline;portConstraint=eastwest;newEdgeStyle={&quot;curved&quot;:0,&quot;rounded&quot;:0};" vertex="1" parent="q6NIXt8k8cD3QEOPo4rP-189">
          <mxGeometry x="45" y="90" width="10" height="120" as="geometry" />
        </mxCell>
        <mxCell id="q6NIXt8k8cD3QEOPo4rP-191" value="输入消息后点击发送" style="html=1;verticalAlign=bottom;endArrow=block;curved=0;rounded=0;entryX=0;entryY=0;entryDx=0;entryDy=5;entryPerimeter=0;" edge="1" parent="1">
          <mxGeometry x="0.0041" width="80" relative="1" as="geometry">
            <mxPoint x="55" y="1770" as="sourcePoint" />
            <mxPoint x="195" y="1770" as="targetPoint" />
            <mxPoint as="offset" />
          </mxGeometry>
        </mxCell>
        <mxCell id="q6NIXt8k8cD3QEOPo4rP-192" value="调用Service层chat方法&lt;div&gt;处理搜索内容业务逻辑&lt;/div&gt;" style="html=1;verticalAlign=bottom;endArrow=block;curved=0;rounded=0;" edge="1" parent="1">
          <mxGeometry width="80" relative="1" as="geometry">
            <mxPoint x="205" y="1790" as="sourcePoint" />
            <mxPoint x="365" y="1790" as="targetPoint" />
            <mxPoint as="offset" />
          </mxGeometry>
        </mxCell>
        <mxCell id="q6NIXt8k8cD3QEOPo4rP-193" value="调用HttpClient访问GPT或&lt;div&gt;文心一言接口获取数据&lt;/div&gt;" style="html=1;verticalAlign=bottom;endArrow=block;curved=0;rounded=0;" edge="1" parent="1">
          <mxGeometry x="-0.0019" width="80" relative="1" as="geometry">
            <mxPoint x="375" y="1800" as="sourcePoint" />
            <mxPoint x="525" y="1800" as="targetPoint" />
            <mxPoint as="offset" />
          </mxGeometry>
        </mxCell>
        <mxCell id="q6NIXt8k8cD3QEOPo4rP-194" value="return查询结果" style="html=1;verticalAlign=bottom;endArrow=open;dashed=1;endSize=8;curved=0;rounded=0;" edge="1" parent="1" target="q6NIXt8k8cD3QEOPo4rP-190">
          <mxGeometry x="-0.0019" relative="1" as="geometry">
            <mxPoint x="525" y="1860" as="sourcePoint" />
            <mxPoint x="380" y="1860" as="targetPoint" />
            <mxPoint as="offset" />
          </mxGeometry>
        </mxCell>
        <mxCell id="q6NIXt8k8cD3QEOPo4rP-195" value="使用EventSteam返回接口" style="html=1;verticalAlign=bottom;endArrow=open;dashed=1;endSize=8;curved=0;rounded=0;" edge="1" parent="1" target="q6NIXt8k8cD3QEOPo4rP-188">
          <mxGeometry x="0.0323" y="-10" relative="1" as="geometry">
            <mxPoint x="360" y="1880" as="sourcePoint" />
            <mxPoint x="280" y="1880" as="targetPoint" />
            <mxPoint as="offset" />
          </mxGeometry>
        </mxCell>
        <mxCell id="q6NIXt8k8cD3QEOPo4rP-196" value="return结果" style="html=1;verticalAlign=bottom;endArrow=open;dashed=1;endSize=8;curved=0;rounded=0;" edge="1" parent="1" target="q6NIXt8k8cD3QEOPo4rP-180">
          <mxGeometry x="-0.0011" relative="1" as="geometry">
            <mxPoint x="190" y="1890" as="sourcePoint" />
            <mxPoint x="60" y="1890" as="targetPoint" />
            <mxPoint as="offset" />
          </mxGeometry>
        </mxCell>
        <mxCell id="q6NIXt8k8cD3QEOPo4rP-197" value="HttpClient" style="shape=umlLifeline;perimeter=lifelinePerimeter;whiteSpace=wrap;html=1;container=1;dropTarget=0;collapsible=0;recursiveResize=0;outlineConnect=0;portConstraint=eastwest;newEdgeStyle={&quot;curved&quot;:0,&quot;rounded&quot;:0};" vertex="1" parent="1">
          <mxGeometry x="480" y="1680" width="100" height="300" as="geometry" />
        </mxCell>
      </root>
    </mxGraphModel>
  </diagram>
</mxfile>
